<?xml version="1.0" encoding="UTF-8"?> <svg xmlns="http://www.w3.org/2000/svg" width="139" height="60" viewBox="0 0 139 60" fill="none"> <path d="M9.64062 26H5.01172V12.6523H0.828125V8.86719H13.8125V12.6523H9.64062V26ZM26.4336 26H16.2617V8.86719H26.4336V12.582H20.8906V15.2773H26.0234V18.9922H20.8906V22.2266H26.4336V26ZM37.0625 12.418C35.9609 12.418 35.1016 12.8711 34.4844 13.7773C33.8672 14.6758 33.5586 15.918 33.5586 17.5039C33.5586 20.8008 34.8125 22.4492 37.3203 22.4492C38.0781 22.4492 38.8125 22.3438 39.5234 22.1328C40.2344 21.9219 40.9492 21.668 41.668 21.3711V25.2852C40.2383 25.918 38.6211 26.2344 36.8164 26.2344C34.2305 26.2344 32.2461 25.4844 30.8633 23.9844C29.4883 22.4844 28.8008 20.3164 28.8008 17.4805C28.8008 15.707 29.1328 14.1484 29.7969 12.8047C30.4688 11.4609 31.4297 10.4297 32.6797 9.71094C33.9375 8.98438 35.4141 8.62109 37.1094 8.62109C38.9609 8.62109 40.7305 9.02344 42.418 9.82812L41 13.4727C40.3672 13.1758 39.7344 12.9258 39.1016 12.7227C38.4688 12.5195 37.7891 12.418 37.0625 12.418ZM59.7031 26H55.0508V19.0156H49.6719V26H45.0195V8.86719H49.6719V15.2188H55.0508V8.86719H59.7031V26ZM74.2109 26H69.6523V8.86719H79.7773V12.582H74.2109V15.8516H79.3438V19.5664H74.2109V26ZM82.5898 26V8.86719H87.2188V22.2617H93.8164V26H82.5898ZM112.59 17.4102C112.59 20.293 111.883 22.4844 110.469 23.9844C109.055 25.4844 106.984 26.2344 104.258 26.2344C101.57 26.2344 99.5078 25.4805 98.0703 23.9727C96.6406 22.4648 95.9258 20.2695 95.9258 17.3867C95.9258 14.5352 96.6367 12.3594 98.0586 10.8594C99.4883 9.35156 101.562 8.59766 104.281 8.59766C107.008 8.59766 109.074 9.34375 110.48 10.8359C111.887 12.3281 112.59 14.5195 112.59 17.4102ZM100.801 17.4102C100.801 20.7227 101.953 22.3789 104.258 22.3789C105.43 22.3789 106.297 21.9766 106.859 21.1719C107.43 20.3672 107.715 19.1133 107.715 17.4102C107.715 15.6992 107.426 14.4375 106.848 13.625C106.277 12.8047 105.422 12.3945 104.281 12.3945C101.961 12.3945 100.801 14.0664 100.801 17.4102ZM134.188 26H128.715L127.074 18.5352C126.996 18.2227 126.871 17.6016 126.699 16.6719C126.535 15.7422 126.414 14.9648 126.336 14.3398C126.273 14.8477 126.172 15.4805 126.031 16.2383C125.891 16.9883 125.75 17.6797 125.609 18.3125C125.477 18.9453 124.91 21.5078 123.91 26H118.438L114.195 8.86719H118.66L120.523 17.457C120.945 19.3555 121.234 20.8672 121.391 21.9922C121.492 21.1953 121.672 20.1133 121.93 18.7461C122.195 17.3789 122.441 16.2461 122.668 15.3477L124.18 8.86719H128.469L129.934 15.3477C130.184 16.3867 130.438 17.5859 130.695 18.9453C130.953 20.3047 131.125 21.3203 131.211 21.9922C131.312 21.125 131.59 19.6211 132.043 17.4805L133.941 8.86719H138.406L134.188 26Z" fill="white"></path> <path d="M16.4379 49.7354C16.4379 51.1318 15.933 52.2275 14.9232 53.0225C13.9135 53.8174 12.5206 54.2148 10.7445 54.2148C8.96849 54.2148 7.51471 53.9391 6.3832 53.3877V50.96C7.09935 51.2965 7.85846 51.5615 8.66055 51.7549C9.46979 51.9482 10.2217 52.0449 10.9164 52.0449C11.9333 52.0449 12.6817 51.8516 13.1615 51.4648C13.6485 51.0781 13.892 50.5589 13.892 49.9072C13.892 49.32 13.67 48.8223 13.226 48.4141C12.782 48.0059 11.8653 47.5225 10.476 46.9639C9.04368 46.3838 8.03392 45.7214 7.44668 44.9766C6.85944 44.2318 6.56582 43.3366 6.56582 42.291C6.56582 40.9805 7.03131 39.9492 7.9623 39.1973C8.89329 38.4453 10.143 38.0693 11.7113 38.0693C13.2152 38.0693 14.712 38.3988 16.2016 39.0576L15.3852 41.1523C13.9887 40.5651 12.7426 40.2715 11.6469 40.2715C10.8161 40.2715 10.1859 40.4541 9.75625 40.8193C9.32656 41.1774 9.11172 41.6536 9.11172 42.248C9.11172 42.6562 9.19765 43.0072 9.36953 43.3008C9.5414 43.5872 9.82428 43.8594 10.2182 44.1172C10.612 44.375 11.321 44.7152 12.3451 45.1377C13.4981 45.6175 14.3432 46.0651 14.8803 46.4805C15.4174 46.8958 15.8113 47.3649 16.0619 47.8877C16.3126 48.4105 16.4379 49.0264 16.4379 49.7354ZM34.3627 54H31.7953V40.4971H27.1762V38.2949H38.9819V40.4971H34.3627V54ZM63.1694 38.2949V48.457C63.1694 49.6172 62.9188 50.6341 62.4175 51.5078C61.9233 52.3743 61.2036 53.0439 60.2583 53.5166C59.3201 53.9821 58.1958 54.2148 56.8852 54.2148C54.9373 54.2148 53.4227 53.6992 52.3413 52.668C51.2599 51.6367 50.7192 50.2188 50.7192 48.4141V38.2949H53.2973V48.2314C53.2973 49.5277 53.5981 50.4837 54.1997 51.0996C54.8012 51.7155 55.7251 52.0234 56.9712 52.0234C59.3917 52.0234 60.602 50.7523 60.602 48.21V38.2949H63.1694ZM89.4194 45.9971C89.4194 48.5895 88.6997 50.5732 87.2603 51.9482C85.8208 53.3161 83.7476 54 81.0405 54H76.647V38.2949H81.5025C84.0018 38.2949 85.9461 38.9681 87.3355 40.3145C88.7248 41.6608 89.4194 43.555 89.4194 45.9971ZM86.7124 46.083C86.7124 42.3232 84.9543 40.4434 81.438 40.4434H79.2144V51.8408H81.0405C84.8218 51.8408 86.7124 49.9215 86.7124 46.083ZM102.263 54V38.2949H104.831V54H102.263ZM132.391 46.126C132.391 48.6826 131.75 50.6699 130.468 52.0879C129.194 53.5059 127.385 54.2148 125.044 54.2148C122.673 54.2148 120.851 53.513 119.576 52.1094C118.308 50.6986 117.674 48.6969 117.674 46.1045C117.674 43.512 118.312 41.5212 119.587 40.1318C120.868 38.7425 122.695 38.0479 125.065 38.0479C127.4 38.0479 129.204 38.7533 130.479 40.1641C131.754 41.5749 132.391 43.5622 132.391 46.126ZM120.403 46.126C120.403 48.0596 120.793 49.5277 121.574 50.5303C122.354 51.5257 123.511 52.0234 125.044 52.0234C126.569 52.0234 127.718 51.5293 128.492 50.541C129.272 49.5527 129.663 48.0811 129.663 46.126C129.663 44.1995 129.276 42.7386 128.503 41.7432C127.736 40.7477 126.59 40.25 125.065 40.25C123.525 40.25 122.362 40.7477 121.574 41.7432C120.793 42.7386 120.403 44.1995 120.403 46.126Z" fill="white"></path> </svg> 